<?xml version="1.0" encoding="UTF-8"?>
<svg version="1.1" xmlns="http://www.w3.org/2000/svg" width="306" height="385">
<path d="M0 0 C1.30568939 0.00433548 1.30568939 0.00433548 2.63775635 0.00875854 C5.52691144 0.0227771 8.41526876 0.05926524 11.30419922 0.09741211 C13.32184185 0.11531019 15.33949157 0.1324238 17.35714722 0.14878845 C21.59927767 0.18688141 25.8410917 0.23638715 30.08300781 0.29345703 C35.47436861 0.36484175 40.86543539 0.40563544 46.25715828 0.43714237 C50.43397719 0.46554661 54.61045361 0.51214884 58.78704453 0.56374931 C60.77135478 0.58588853 62.75573889 0.60228392 64.74014664 0.61244392 C83.79121321 0.72677186 105.37471155 2.57708317 119.96435547 16.53881836 C126.42397434 24.07780799 129.73094929 31.59397078 131.48388672 41.31225586 C131.71076172 42.48788086 131.93763672 43.66350586 132.17138672 44.87475586 C133.5426138 59.95825376 131.30034957 75.06272737 121.89013672 87.40209961 C115.30548312 94.49923804 106.71491585 98.77037827 97.48388672 101.31225586 C98.11294922 102.22104492 98.74201172 103.12983398 99.39013672 104.06616211 C108.3063442 117.08890999 115.23675675 130.63532273 121.85888672 144.93725586 C122.13844208 145.5409198 122.41799744 146.14458374 122.70602417 146.76654053 C125.596254 153.0132571 128.46599885 159.26863058 131.29638672 165.54272461 C132.15016184 167.40358139 133.00430448 169.2642696 133.85888672 171.12475586 C134.22675293 171.95894043 134.59461914 172.793125 134.97363281 173.65258789 C138.61768508 181.52016978 143.63773706 186.80988381 151.42138672 190.74975586 C152.37916016 191.2434668 153.33693359 191.73717773 154.32373047 192.24584961 C155.03658203 192.59776367 155.74943359 192.94967773 156.48388672 193.31225586 C156.48388672 195.29225586 156.48388672 197.27225586 156.48388672 199.31225586 C150.43337759 199.46058994 144.38392654 199.56946615 138.33203125 199.6418457 C136.2735755 199.67201692 134.21524829 199.71296027 132.15722656 199.76489258 C129.19808264 199.83769351 126.24063776 199.87170811 123.28076172 199.89819336 C122.36083435 199.92916107 121.44090698 199.96012878 120.49310303 199.99203491 C118.02378817 199.99333525 115.87883584 199.91361251 113.48388672 199.31225586 C111.09936523 196.77148438 111.09936523 196.77148438 109.48388672 193.31225586 C109.18942657 192.70885376 108.89496643 192.10545166 108.59158325 191.48376465 C107.62566255 189.46747851 106.7281608 187.43005039 105.83935547 185.37866211 C105.50648026 184.62366928 105.17360504 183.86867645 104.8306427 183.09080505 C103.77221853 180.68775941 102.72143583 178.28147132 101.67138672 175.87475586 C100.29236998 172.72912605 98.91025301 169.58486753 97.52685547 166.44116211 C97.01684746 165.28102852 97.01684746 165.28102852 96.49653625 164.09745789 C93.78182043 157.94141131 90.96991494 151.83535823 88.1027832 145.74902344 C86.5901481 142.53783894 85.09581868 139.31875723 83.60498047 136.09741211 C82.7110469 134.18957986 81.81652691 132.28202226 80.92138672 130.37475586 C80.25719727 128.93132812 80.25719727 128.93132812 79.57958984 127.45874023 C76.01094669 119.89280358 71.84076732 111.79815866 64.48388672 107.31225586 C58.82303536 106.20627976 53.28520332 106.19302231 47.54638672 106.24975586 C46.67175781 106.25426758 45.79712891 106.2587793 44.89599609 106.26342773 C42.75859624 106.27510751 40.62123209 106.29303897 38.48388672 106.31225586 C38.4374578 115.44859408 38.40196399 124.58489141 38.38026237 133.72132206 C38.36984443 137.96415957 38.3557217 142.20691611 38.33300781 146.44970703 C38.31120831 150.54754363 38.29930314 154.64530254 38.29413223 158.74319267 C38.29044921 160.30321919 38.28325725 161.86324167 38.27242661 163.42323494 C38.25781699 165.61558198 38.25591269 167.80761178 38.25683594 170 C38.2501741 171.86864464 38.2501741 171.86864464 38.24337769 173.77503967 C38.63603051 179.54986606 39.85740998 184.48544515 43.77685547 188.89038086 C47.2364528 191.77205919 51.38651914 193.51418776 55.48388672 195.31225586 C55.48388672 196.63225586 55.48388672 197.95225586 55.48388672 199.31225586 C49.83755327 200.51016122 44.30779444 200.45661802 38.56591797 200.44506836 C36.98637581 200.44650345 36.98637581 200.44650345 35.37492371 200.44796753 C33.15009501 200.44864665 30.92526432 200.44681107 28.70043945 200.44262695 C25.32547451 200.43730176 21.95064427 200.44256724 18.57568359 200.44897461 C16.40576143 200.44831326 14.23583935 200.44703092 12.06591797 200.44506836 C11.06969925 200.44709259 10.07348053 200.44911682 9.04707336 200.45120239 C2.47702031 200.42964803 -3.98379048 200.0118039 -10.51611328 199.31225586 C-10.84611328 198.32225586 -11.17611328 197.33225586 -11.51611328 196.31225586 C-10.30375 195.67610352 -10.30375 195.67610352 -9.06689453 195.02709961 C-1.56722189 190.91087397 3.68282004 187.71545591 6.48388672 179.31225586 C6.58402837 177.21457431 6.62325847 175.11381948 6.63105774 173.01376343 C6.63473443 172.37234897 6.63841112 171.73093452 6.64219922 171.07008326 C6.65322796 168.91691265 6.65707855 166.76379032 6.66088867 164.6105957 C6.66715407 163.06812385 6.67380093 161.52565351 6.68080139 159.98318481 C6.70183968 154.91319835 6.71220531 149.84321159 6.72216797 144.77319336 C6.72621597 143.02656666 6.73033291 141.27994012 6.73451805 139.53331375 C6.75357123 131.32511065 6.76780055 123.11691654 6.77613002 114.90869558 C6.78589559 105.44202518 6.81219674 95.97558903 6.85263091 86.50900114 C6.88282684 79.18741485 6.89760229 71.86589556 6.90091103 64.54424822 C6.90325806 60.17375523 6.91217278 55.80351244 6.93737221 51.4330864 C6.96071814 47.31752703 6.96486016 43.20238143 6.95461082 39.08677292 C6.95411689 37.58118307 6.96039518 36.07557241 6.97416687 34.57004547 C7.05299088 25.43747537 7.00746359 16.96507779 0.29638672 10.06225586 C-3.56203869 7.66145783 -7.50396466 5.4450756 -11.51611328 3.31225586 C-8.20164022 -0.55667458 -4.80402972 -0.08088156 0 0 Z M37.48388672 17.31225586 C37.48388672 41.40225586 37.48388672 65.49225586 37.48388672 90.31225586 C66.4482071 92.64585316 66.4482071 92.64585316 92.48388672 81.31225586 C93.39138672 80.42538086 94.29888672 79.53850586 95.23388672 78.62475586 C102.88413419 68.4071372 102.71698149 55.51814324 101.48388672 43.31225586 C99.6290538 34.9157439 96.09072834 27.73700427 88.90307617 22.82885742 C78.40693887 16.24877821 67.72832078 16.83158847 55.79638672 17.06225586 C46.73169922 17.18600586 46.73169922 17.18600586 37.48388672 17.31225586 Z " fill="#162354" transform="translate(149.51611328125,140.687744140625)"/>
<path d="M0 0 C1.28117706 0.02009628 2.56235413 0.04019257 3.88235474 0.06089783 C5.28599253 0.0880963 6.68962814 0.11540711 8.09326172 0.14282227 C9.52529152 0.16712079 10.95732911 0.19096448 12.38937378 0.21437073 C16.16075499 0.27723836 19.9319986 0.34629734 23.70324707 0.41662598 C27.55063606 0.48728528 31.3981227 0.55211661 35.24560547 0.61743164 C42.79649472 0.74647849 50.34724812 0.8820632 57.89794922 1.02172852 C57.89794922 2.34172852 57.89794922 3.66172852 57.89794922 5.02172852 C57.16189453 5.36204102 56.42583984 5.70235352 55.66748047 6.05297852 C54.69166016 6.53766602 53.71583984 7.02235352 52.71044922 7.52172852 C51.74751953 7.98579102 50.78458984 8.44985352 49.79248047 8.92797852 C45.81419029 11.8056621 43.66843001 14.40451746 41.89794922 19.02172852 C41.16418527 24.6565088 41.23737922 30.25018567 41.28613281 35.92407227 C41.28258822 37.64311805 41.27680671 39.36216045 41.26896667 41.08119202 C41.25681469 44.77368785 41.26022378 48.4657211 41.2757988 52.15820312 C41.30019994 58.01062932 41.28858378 63.8626542 41.27212524 69.71508789 C41.24765081 80.03975029 41.25341781 90.3642292 41.26593018 100.68890381 C41.28450412 116.20023746 41.27948739 131.71153409 41.24589598 147.22284222 C41.23446037 153.02569227 41.23871493 158.82824655 41.25591636 164.63107967 C41.26388661 168.26251398 41.25951703 171.89386465 41.2522068 175.52529716 C41.25140531 177.19242361 41.25563449 178.85956246 41.2656498 180.52665901 C41.36148993 197.31075237 39.85879832 213.34775882 29.64794922 227.39672852 C17.11787613 239.35725283 0.08228682 242.58389175 -16.68798828 242.26782227 C-29.94916341 241.3119252 -40.88409002 236.29372032 -49.64111328 226.26782227 C-51.23503728 223.81727067 -51.72769298 221.90023644 -52.10205078 219.02172852 C-50.54912318 218.15027982 -48.98419643 217.30019195 -47.41455078 216.45922852 C-46.54443359 215.98356445 -45.67431641 215.50790039 -44.77783203 215.01782227 C-41.66670766 213.85966648 -40.21334288 213.94959408 -37.10205078 215.02172852 C-35.43538411 216.68839518 -33.76871745 218.35506185 -32.10205078 220.02172852 C-24.87834207 225.13570922 -15.93883413 225.85646168 -7.35205078 224.52172852 C-2.15620564 223.07896208 1.5753597 220.2313442 4.89794922 216.02172852 C9.21230156 207.64240836 10.01640188 198.84223721 10.03839111 189.55250549 C10.04136224 188.84556563 10.04433336 188.13862576 10.04739451 187.41026348 C10.05599614 185.06532605 10.05758242 182.72044018 10.05908203 180.37548828 C10.06371608 178.68449802 10.06874153 176.99350879 10.0741272 175.30252075 C10.08719233 170.72609024 10.09368402 166.14967435 10.09813786 161.57322812 C10.10107671 158.7107068 10.10518292 155.84818942 10.10964203 152.98567009 C10.12329834 144.01929226 10.13297543 135.0529235 10.13684392 126.08653599 C10.14132721 115.75400608 10.15889555 105.42160828 10.18784451 95.08911854 C10.20948015 87.0880308 10.21954912 79.0869802 10.22088504 71.08586353 C10.22193125 66.31308107 10.22780054 61.54042312 10.24570465 56.76767159 C10.26221905 52.27864846 10.26432454 47.78984306 10.25556564 43.30080032 C10.25479721 41.65814695 10.25911237 40.0154817 10.2690239 38.37285805 C10.32270404 28.91858272 10.14278792 20.83539785 5.39794922 12.33422852 C1.43625168 8.66965829 -3.30243529 6.42981146 -8.10205078 4.02172852 C-8.10205078 3.03172852 -8.10205078 2.04172852 -8.10205078 1.02172852 C-5.32072009 -0.36893683 -3.11084887 -0.05489733 0 0 Z " fill="#162354" transform="translate(55.10205078125,140.978271484375)"/>
<path d="M0 0 C0.88190002 -0.00426498 1.76380005 -0.00852997 2.67242432 -0.01292419 C3.64234818 -0.01247101 4.61227203 -0.01201782 5.61158752 -0.0115509 C6.63118561 -0.01490952 7.65078369 -0.01826813 8.70127869 -0.02172852 C12.08488673 -0.03125797 15.4684454 -0.03318259 18.85206604 -0.03425598 C21.19614686 -0.03746704 23.54022747 -0.04083099 25.88430786 -0.04434204 C30.80300868 -0.05033821 35.7216919 -0.05218143 40.64039612 -0.05158997 C46.9535779 -0.05148828 53.26664737 -0.06514454 59.57980251 -0.08236217 C64.42240928 -0.09346184 69.2649887 -0.09550981 74.10760689 -0.09498024 C76.43568878 -0.09616328 78.76377132 -0.10060305 81.09184074 -0.10831261 C84.34329551 -0.11807201 87.59450408 -0.11525052 90.84596252 -0.10920715 C91.81386215 -0.11482666 92.78176178 -0.12044617 93.7789917 -0.12623596 C94.66371155 -0.12204147 95.5484314 -0.11784698 96.45996094 -0.11352539 C97.22890403 -0.11407016 97.99784712 -0.11461493 98.79009151 -0.1151762 C100.79347229 0.13371277 100.79347229 0.13371277 103.79347229 2.13371277 C104.15423584 4.8039093 104.15423584 4.8039093 104.13404846 8.23576355 C104.13382187 9.51694061 104.13359528 10.79811768 104.13336182 12.11811829 C104.1180407 13.52175747 104.10239269 14.92539311 104.08644104 16.32902527 C104.08084667 17.76105811 104.07657582 19.19309669 104.07357788 20.62513733 C104.06211642 24.39658933 104.03263853 28.16769542 103.99946594 31.93901062 C103.96879279 35.78641581 103.95507847 39.63387683 103.93995667 43.48136902 C103.90776967 51.03230807 103.85655813 58.58296198 103.79347229 66.13371277 C104.41995667 66.11050964 105.04644104 66.08730652 105.69190979 66.06340027 C106.50917542 66.04535339 107.32644104 66.02730652 108.16847229 66.00871277 C108.98058167 65.98550964 109.79269104 65.96230652 110.62940979 65.93840027 C112.79347229 66.13371277 112.79347229 66.13371277 114.79347229 68.13371277 C115.15838232 72.81204646 114.37931558 76.94831266 111.41847229 80.63371277 C107.99590826 83.89329756 105.68714613 84.25787894 101.14520264 84.27415466 C100.19053604 84.27986481 99.23586945 84.28557495 98.25227356 84.29145813 C97.20650146 84.29257599 96.16072937 84.29369385 95.08326721 84.29484558 C93.98055984 84.29981049 92.87785248 84.30477539 91.74172974 84.30989075 C88.08579387 84.32452198 84.4299014 84.33131598 80.77394104 84.33683777 C78.23669432 84.3425884 75.69944762 84.34834615 73.16220093 84.35411072 C68.51908862 84.36327923 63.87598936 84.36957844 59.23287028 84.37260747 C52.40538202 84.37708631 45.57809414 84.39462732 38.7506668 84.42360806 C32.83200153 84.44785667 26.91338602 84.45555313 20.99466896 84.45728302 C18.47926556 84.46031139 15.96386305 84.46834609 13.44849205 84.4814682 C9.92946047 84.4985157 6.41091704 84.49665131 2.89186096 84.49015808 C1.85216156 84.49937286 0.81246216 84.50858765 -0.25874329 84.51808167 C-5.65374934 84.48688574 -9.57415558 84.23202956 -14.20652771 81.13371277 C-17.20736722 77.40853268 -17.94325345 73.87264945 -18.20652771 69.13371277 C-17.54652771 68.14371277 -16.88652771 67.15371277 -16.20652771 66.13371277 C-14.04246521 65.84074402 -14.04246521 65.84074402 -11.58152771 65.94621277 C-10.76426208 65.97328308 -9.94699646 66.00035339 -9.10496521 66.02824402 C-8.47848083 66.06304871 -7.85199646 66.09785339 -7.20652771 66.13371277 C-7.21176453 65.30162292 -7.21700134 64.46953308 -7.22239685 63.61222839 C-7.33496884 42.76218541 -6.99890047 21.96932314 -6.20652771 1.13371277 C-3.89383616 -0.02263301 -2.57363209 0.00561176 0 0 Z M-0.20652771 7.13371277 C-0.20652771 26.60371277 -0.20652771 46.07371277 -0.20652771 66.13371277 C32.13347229 66.13371277 64.47347229 66.13371277 97.79347229 66.13371277 C97.81409729 56.95558777 97.83472229 47.77746277 97.85597229 38.32121277 C97.86507629 35.42493103 97.8741803 32.52864929 97.88356018 29.54460144 C97.88648011 27.25529527 97.88902849 24.96598859 97.89112854 22.67668152 C97.89624451 21.48288879 97.90136047 20.28909607 97.90663147 19.05912781 C97.90675232 17.92253723 97.90687317 16.78594666 97.90699768 15.61491394 C97.90921829 14.62674179 97.9114389 13.63856964 97.91372681 12.62045288 C97.89923085 10.00092928 97.89923085 10.00092928 96.79347229 7.13371277 C64.78347229 7.13371277 32.77347229 7.13371277 -0.20652771 7.13371277 Z M-10.20652771 73.13371277 C-9.87652771 74.12371277 -9.54652771 75.11371277 -9.20652771 76.13371277 C-6.82188992 77.32603167 -5.37531939 77.25694408 -2.71406555 77.25396729 C-1.76893097 77.25534195 -0.82379639 77.25671661 0.14997864 77.25813293 C1.1900708 77.25453766 2.23016296 77.25094238 3.30177307 77.24723816 C4.940811 77.2474572 4.940811 77.2474572 6.61296082 77.24768066 C10.23825541 77.2469819 13.86349913 77.23919119 17.48878479 77.23136902 C19.99699373 77.22950471 22.50520304 77.22808087 25.01341248 77.2270813 C30.94907028 77.22364838 36.88471166 77.21576041 42.82036102 77.20573181 C50.23978026 77.19346782 57.65920176 77.18808906 65.07862854 77.18254089 C78.31691913 77.17180536 91.55519455 77.15492148 104.79347229 77.13371277 C105.45347229 75.81371277 106.11347229 74.49371277 106.79347229 73.13371277 C100.60045028 73.08427204 94.4075432 73.04797372 88.21437073 73.02384949 C86.10757954 73.01379243 84.0008023 73.00014509 81.89405823 72.98283386 C78.86570288 72.95857277 75.8375321 72.94722669 72.80909729 72.93840027 C71.39639557 72.92291641 71.39639557 72.92291641 69.95515442 72.90711975 C69.07454346 72.90696869 68.1939325 72.90681763 67.28663635 72.90666199 C66.51386353 72.90222076 65.7410907 72.89777954 64.94490051 72.89320374 C62.51225909 73.16514971 60.93120109 73.9768972 58.79347229 75.13371277 C56.67457581 75.39250183 56.67457581 75.39250183 54.42237854 75.39933777 C53.6006012 75.40191589 52.77882385 75.40449402 51.93214417 75.40715027 C51.08200745 75.39941589 50.23187073 75.39168152 49.35597229 75.38371277 C48.50970276 75.39144714 47.66343323 75.39918152 46.79151917 75.40715027 C45.96845276 75.40457214 45.14538635 75.40199402 44.29737854 75.39933777 C43.55302551 75.39708191 42.80867249 75.39482605 42.04176331 75.39250183 C39.79347229 75.13371277 39.79347229 75.13371277 37.6577301 74.12931824 C33.2965254 72.61337954 29.04399247 72.88904916 24.46144104 72.93840027 C23.46969376 72.94123016 22.47794647 72.94406006 21.45614624 72.94697571 C18.2976307 72.95814473 15.13940172 72.9832435 11.98097229 73.00871277 C9.8357941 73.0187468 7.69061146 73.02787191 5.54542542 73.03605652 C0.29467708 73.05807332 -4.95590484 73.09151834 -10.20652771 73.13371277 Z " fill="#5E5F62" transform="translate(107.20652770996094,-0.1337127685546875)"/>
<path d="M0 0 C1.20462891 -0.02126953 1.20462891 -0.02126953 2.43359375 -0.04296875 C4.5625 0.1875 4.5625 0.1875 6.5625 2.1875 C6.92741003 6.86583369 6.14834329 11.00209989 3.1875 14.6875 C-0.87949421 18.56082782 -4.41486938 18.32523842 -9.73046875 18.28515625 C-10.78951164 18.28303383 -10.78951164 18.28303383 -11.86994934 18.28086853 C-14.12167626 18.27527764 -16.37330321 18.26272688 -18.625 18.25 C-20.15299335 18.24498382 -21.68098827 18.24042112 -23.20898438 18.23632812 C-26.95186135 18.2253112 -30.69466373 18.20805287 -34.4375 18.1875 C-34.4375 17.8575 -34.4375 17.5275 -34.4375 17.1875 C-35.46622726 17.18163376 -36.49495453 17.17576752 -37.55485535 17.16972351 C-47.25139047 17.11250139 -56.94770122 17.03974239 -66.64400768 16.95178509 C-71.62894765 16.90706461 -76.61380558 16.86781212 -81.59887695 16.84106445 C-86.41009059 16.8150483 -91.22098879 16.77465773 -96.03200722 16.72431374 C-97.86716093 16.70763362 -99.70236921 16.69612647 -101.53758812 16.68988609 C-104.10897232 16.68025744 -106.67954742 16.65221339 -109.25073242 16.61987305 C-110.00886734 16.62130814 -110.76700226 16.62274323 -111.54811096 16.6242218 C-115.99419478 16.54517777 -118.9163349 15.96714807 -122.4375 13.1875 C-123.25 11 -123.25 11 -123.4375 9.1875 C-120.81193451 9.63759694 -118.51906737 10.15217589 -116.0674181 11.21390343 C-113.336016 12.22506941 -111.44064363 12.4222402 -108.54631042 12.39004517 C-107.5886377 12.38438034 -106.63096497 12.37871552 -105.64427185 12.37287903 C-104.60561478 12.35633774 -103.5669577 12.33979645 -102.49682617 12.32275391 C-101.39394257 12.31329239 -100.29105896 12.30383087 -99.15475464 12.29408264 C-95.51315635 12.26043313 -91.87190048 12.21230927 -88.23046875 12.1640625 C-85.70413607 12.13789252 -83.17779388 12.11262574 -80.65144348 12.08822632 C-74.68390988 12.02841132 -68.71654868 11.95949479 -62.74917156 11.88615549 C-55.95362039 11.80314678 -49.15796243 11.73178461 -42.36227071 11.66138959 C-28.38719017 11.51636453 -14.41230666 11.35674969 -0.4375 11.1875 C-0.9325 8.7125 -0.9325 8.7125 -1.4375 6.1875 C-7.82802386 6.30480201 -14.21836808 6.42963771 -20.60864258 6.55981445 C-22.78438953 6.60323507 -24.96017214 6.64490471 -27.13598633 6.68481445 C-30.25613168 6.74234502 -33.37609633 6.80608823 -36.49609375 6.87109375 C-37.47525253 6.88780624 -38.45441132 6.90451874 -39.46324158 6.92173767 C-40.36409988 6.94168289 -41.26495819 6.96162811 -42.19311523 6.98217773 C-42.99031479 6.99772202 -43.78751434 7.0132663 -44.60887146 7.02928162 C-46.45601382 6.99150665 -46.45601382 6.99150665 -47.4375 8.1875 C-51.3684174 8.44092896 -55.31188433 8.37273019 -59.25 8.375 C-60.90999023 8.39336914 -60.90999023 8.39336914 -62.60351562 8.41210938 C-63.66892578 8.41404297 -64.73433594 8.41597656 -65.83203125 8.41796875 C-67.29926636 8.42413208 -67.29926636 8.42413208 -68.79614258 8.43041992 C-71.4375 8.1875 -71.4375 8.1875 -73.33959961 7.19897461 C-76.41608242 5.71568958 -79.2106942 5.85701162 -82.609375 5.7734375 C-83.2917926 5.75407135 -83.97421021 5.7347052 -84.67730713 5.7147522 C-86.84724608 5.65518902 -89.01723877 5.60866554 -91.1875 5.5625 C-92.66278297 5.52429869 -94.13804415 5.4852457 -95.61328125 5.4453125 C-99.22115418 5.34950765 -102.82919083 5.26539084 -106.4375 5.1875 C-106.4375 4.1975 -106.4375 3.2075 -106.4375 2.1875 C-103.71175315 1.27891772 -102.1608291 1.06532906 -99.36300659 1.07397461 C-98.53574066 1.0740451 -97.70847473 1.0741156 -96.85614014 1.07418823 C-95.95212463 1.07935455 -95.04810913 1.08452087 -94.11669922 1.08984375 C-92.68467667 1.09203415 -92.68467667 1.09203415 -91.22372437 1.0942688 C-89.14970255 1.09807629 -87.07568399 1.10419443 -85.00167465 1.11233521 C-81.72467143 1.12506806 -78.44770853 1.13160624 -75.17068481 1.13647461 C-68.21793846 1.14791648 -61.26522529 1.1671683 -54.3125 1.1875 C-46.25146858 1.21104678 -38.19045596 1.2314494 -30.12939835 1.24343872 C-26.89140571 1.24995129 -23.65347032 1.26245814 -20.41549683 1.27514648 C-18.44350231 1.2787768 -16.47150725 1.2821288 -14.49951172 1.28515625 C-13.59144775 1.29032257 -12.68338379 1.29548889 -11.74780273 1.30081177 C-9.64402941 1.30099227 -7.54034518 1.2499852 -5.4375 1.1875 C-3.84855928 -0.40144072 -2.18948576 0.01751589 0 0 Z " fill="#717276" transform="translate(215.4375,65.8125)"/>
<path d="M0 0 C0.88190002 -0.00426498 1.76380005 -0.00852997 2.67242432 -0.01292419 C3.64234818 -0.01247101 4.61227203 -0.01201782 5.61158752 -0.0115509 C6.63118561 -0.01490952 7.65078369 -0.01826813 8.70127869 -0.02172852 C12.08488673 -0.03125797 15.4684454 -0.03318259 18.85206604 -0.03425598 C21.19614686 -0.03746704 23.54022747 -0.04083099 25.88430786 -0.04434204 C30.80300868 -0.05033821 35.7216919 -0.05218143 40.64039612 -0.05158997 C46.9535779 -0.05148828 53.26664737 -0.06514454 59.57980251 -0.08236217 C64.42240928 -0.09346184 69.2649887 -0.09550981 74.10760689 -0.09498024 C76.43568878 -0.09616328 78.76377132 -0.10060305 81.09184074 -0.10831261 C84.34329551 -0.11807201 87.59450408 -0.11525052 90.84596252 -0.10920715 C91.81386215 -0.11482666 92.78176178 -0.12044617 93.7789917 -0.12623596 C94.66371155 -0.12204147 95.5484314 -0.11784698 96.45996094 -0.11352539 C97.22890403 -0.11407016 97.99784712 -0.11461493 98.79009151 -0.1151762 C100.79347229 0.13371277 100.79347229 0.13371277 103.79347229 2.13371277 C103.46347229 3.12371277 103.13347229 4.11371277 102.79347229 5.13371277 C102.29847229 4.14371277 102.29847229 4.14371277 101.79347229 3.13371277 C99.76883974 2.48157985 99.76883974 2.48157985 97.79347229 2.13371277 C98.28847229 5.59871277 98.28847229 5.59871277 98.79347229 9.13371277 C98.13347229 9.13371277 97.47347229 9.13371277 96.79347229 9.13371277 C96.79347229 8.47371277 96.79347229 7.81371277 96.79347229 7.13371277 C64.78347229 7.13371277 32.77347229 7.13371277 -0.20652771 7.13371277 C-0.20652771 10.43371277 -0.20652771 13.73371277 -0.20652771 17.13371277 C-0.53652771 17.13371277 -0.86652771 17.13371277 -1.20652771 17.13371277 C-1.42957212 15.38552686 -1.63439221 13.63500954 -1.83152771 11.88371277 C-1.94754333 10.90918152 -2.06355896 9.93465027 -2.18309021 8.93058777 C-2.20765308 5.99941884 -1.73779941 4.58842312 -0.20652771 2.13371277 C-1.19652771 2.13371277 -2.18652771 2.13371277 -3.20652771 2.13371277 C-4.26608019 5.64795801 -4.40650912 8.99027151 -4.52293396 12.64933777 C-4.56482849 13.89972839 -4.60672302 15.15011902 -4.64988708 16.43840027 C-4.70886169 18.39132996 -4.70886169 18.39132996 -4.76902771 20.38371277 C-4.8122113 21.70113464 -4.8553949 23.01855652 -4.89988708 24.37590027 C-5.00594688 27.62840065 -5.10800795 30.88097669 -5.20652771 34.13371277 C-5.86652771 33.80371277 -6.52652771 33.47371277 -7.20652771 33.13371277 C-6.87652771 22.57371277 -6.54652771 12.01371277 -6.20652771 1.13371277 C-3.89383616 -0.02263301 -2.57363209 0.00561176 0 0 Z " fill="#555555" transform="translate(107.20652770996094,-0.1337127685546875)"/>
<path d="M0 0 C1.2065625 0.0309375 1.2065625 0.0309375 2.4375 0.0625 C2.80210164 5.60648533 1.76275339 9.40116993 -0.7734375 14.23828125 C-1.10163483 14.88951462 -1.42983215 15.54074799 -1.76797485 16.2117157 C-2.45922582 17.57716957 -3.15712578 18.93927591 -3.86132812 20.2980957 C-4.94004809 22.37991756 -5.99896174 24.47089111 -7.0546875 26.56445312 C-7.73065122 27.89379908 -8.40769694 29.22259551 -9.0859375 30.55078125 C-9.56261368 31.48667839 -9.56261368 31.48667839 -10.04891968 32.44148254 C-11.37196455 34.9886491 -12.51927713 37.01927713 -14.5625 39.0625 C-17.1875 38.6875 -17.1875 38.6875 -19.5625 38.0625 C-20.0575 35.5875 -20.0575 35.5875 -20.5625 33.0625 C-21.43261719 33.4028125 -21.43261719 33.4028125 -22.3203125 33.75 C-24.5625 34.0625 -24.5625 34.0625 -26.4921875 32.875 C-27.13414062 32.276875 -27.77609375 31.67875 -28.4375 31.0625 C-29.12585938 30.42183594 -29.81421875 29.78117187 -30.5234375 29.12109375 C-33.38587343 26.23123985 -35.9903462 23.2133884 -38.5625 20.0625 C-37.14434043 15.63274313 -34.97226659 13.06802534 -31.6875 9.8125 C-30.82382813 8.94109375 -29.96015625 8.0696875 -29.0703125 7.171875 C-26.73234069 5.20535665 -25.56505955 4.29646568 -22.5625 4.0625 C-21.9025 4.3925 -21.2425 4.7225 -20.5625 5.0625 C-20.19454305 8.3453659 -20.2393068 9.64913012 -22.3125 12.30078125 C-23.055 12.98527344 -23.7975 13.66976562 -24.5625 14.375 C-25.305 15.07238281 -26.0475 15.76976562 -26.8125 16.48828125 C-27.39 17.00777344 -27.9675 17.52726562 -28.5625 18.0625 C-27.23895209 21.03084532 -25.82035334 22.98882856 -23.4375 25.1875 C-21.8046875 26.6953125 -21.8046875 26.6953125 -20.5625 28.0625 C-20.5625 28.7225 -20.5625 29.3825 -20.5625 30.0625 C-17.34210225 29.34952951 -17.34210225 29.34952951 -15.95263672 26.39453125 C-15.38818848 25.23308594 -14.82374023 24.07164063 -14.2421875 22.875 C-13.93805939 22.25729736 -13.63393127 21.63959473 -13.32058716 21.00317383 C-12.35003501 19.02744372 -11.39339935 17.045355 -10.4375 15.0625 C-9.47174022 13.08108526 -8.50320227 11.10106396 -7.5329895 9.12182617 C-6.65491565 7.32711332 -5.78407971 5.52886473 -4.91357422 3.73046875 C-3.06226724 0.07468944 -3.06226724 0.07468944 0 0 Z M-20.5625 31.0625 C-20.2325 31.7225 -19.9025 32.3825 -19.5625 33.0625 C-19.2325 32.4025 -18.9025 31.7425 -18.5625 31.0625 C-19.2225 31.0625 -19.8825 31.0625 -20.5625 31.0625 Z " fill="#6A696B" transform="translate(162.5625,19.9375)"/>
<path d="M0 0 C2.5389993 0.43525702 4.70412373 0.84824419 7.00743103 2.02961731 C11.54778286 3.50189042 15.95234149 3.22114362 20.69360352 3.15112305 C21.77055481 3.14326782 22.8475061 3.1354126 23.95709229 3.12731934 C27.51453152 3.09875805 31.07162422 3.05549441 34.62890625 3.01171875 C37.1008179 2.98808156 39.57273696 2.96520894 42.04466248 2.94306946 C47.22379125 2.89454719 52.40278607 2.83918543 57.58178711 2.77856445 C64.22535857 2.70100353 70.86897362 2.63664125 77.51272678 2.57690716 C82.61618793 2.53021344 87.71958702 2.47844532 92.82298088 2.42493629 C95.27302852 2.39949845 97.72308827 2.37520153 100.17315865 2.3520565 C103.59411162 2.31860022 107.01493011 2.27877836 110.43579102 2.23706055 C111.45148666 2.22816299 112.46718231 2.21926544 113.51365662 2.21009827 C114.44590057 2.19741913 115.37814453 2.18473999 116.33863831 2.17167664 C117.14700921 2.16262645 117.95538012 2.15357626 118.78824711 2.14425182 C120.97259567 2.00178733 122.89970502 1.60141211 125 1 C125.495 2.485 125.495 2.485 126 4 C125.01 4 124.02 4 123 4 C123 4.66 123 5.32 123 6 C120.60093025 7.19953488 119.10656786 7.13095061 116.42729187 7.14044189 C115.46414062 7.14615204 114.50098938 7.15186218 113.50865173 7.15774536 C112.44836258 7.15886322 111.38807343 7.15998108 110.2956543 7.16113281 C109.18173309 7.16609772 108.06781189 7.17106262 106.9201355 7.17617798 C103.22149038 7.19082721 99.52288816 7.1976063 95.82421875 7.203125 C93.26072691 7.20887429 90.69723509 7.21463205 88.13374329 7.22039795 C83.44107196 7.22957029 78.74841786 7.23586732 74.0557391 7.2388947 C67.15069108 7.2433738 60.24584118 7.26091374 53.34085339 7.2898953 C47.35970233 7.31412723 41.37864489 7.32183957 35.39743996 7.32357025 C32.8532993 7.32660118 30.30915957 7.33464444 27.76505089 7.34775543 C24.20739045 7.3647804 20.65021377 7.36294404 17.0925293 7.35644531 C16.03831284 7.3656601 14.98409637 7.37487488 13.89793396 7.3843689 C4.83411803 7.33241622 4.83411803 7.33241622 1 4 C0.1875 1.8125 0.1875 1.8125 0 0 Z " fill="#88888D" transform="translate(92,75)"/>
<path d="M0 0 C2.4375 0.375 2.4375 0.375 5 1 C6.14315747 3.28631494 6.12112732 4.54347406 6.11352539 7.08251953 C6.11341209 8.34360031 6.11341209 8.34360031 6.11329651 9.63015747 C6.10555458 10.99272171 6.10555458 10.99272171 6.09765625 12.3828125 C6.0962413 13.31221649 6.09482635 14.24162048 6.09336853 15.19918823 C6.08776053 18.17449124 6.07520668 21.14971964 6.0625 24.125 C6.05748603 26.13932183 6.05292295 28.15364484 6.04882812 30.16796875 C6.0377885 35.11200802 6.02051849 40.05599135 6 45 C4.02 45 2.04 45 0 45 C-0.14417703 40.87408284 -0.28652049 36.74810667 -0.42724609 32.62207031 C-0.47525822 31.22166279 -0.52375071 29.82127163 -0.57275391 28.42089844 C-1.07321284 14.101645 -1.07321284 14.101645 -1 7 C-0.34 7 0.32 7 1 7 C0.4740625 5.824375 0.4740625 5.824375 -0.0625 4.625 C-0.371875 3.75875 -0.68125 2.8925 -1 2 C-0.67 1.34 -0.34 0.68 0 0 Z " fill="#616161" transform="translate(205,2)"/>
<path d="M0 0 C4.8772694 0.10950691 7.56269628 2.89430771 10.8125 6.1875 C11.31458984 6.65736328 11.81667969 7.12722656 12.33398438 7.61132812 C14.73688334 10.00768859 15.93697949 11.6900827 16.6171875 15.03515625 C15.79986465 18.96140968 14.20001914 20.50158762 11.3125 23.25 C10.44238281 24.10078125 9.57226562 24.9515625 8.67578125 25.828125 C6.13601717 27.88959774 4.08846365 28.99833611 1 30 C0.01 28.68 -0.98 27.36 -2 26 C-1.51789063 25.46890625 -1.03578125 24.9378125 -0.5390625 24.390625 C0.09257812 23.68421875 0.72421875 22.9778125 1.375 22.25 C2.00148437 21.55390625 2.62796875 20.8578125 3.2734375 20.140625 C4.87505183 18.15491312 5.96520068 16.32045907 7 14 C6.43410156 13.46890625 5.86820313 12.9378125 5.28515625 12.390625 C4.18494141 11.33101562 4.18494141 11.33101562 3.0625 10.25 C2.33160156 9.55390625 1.60070312 8.8578125 0.84765625 8.140625 C-1.01089988 5.98737181 -1.81600746 4.82517572 -2 2 C-1.34 1.34 -0.68 0.68 0 0 Z " fill="#7C7C7E" transform="translate(168,24)"/>
<path d="M0 0 C0.88190002 -0.00426498 1.76380005 -0.00852997 2.67242432 -0.01292419 C3.64234818 -0.01247101 4.61227203 -0.01201782 5.61158752 -0.0115509 C6.63118561 -0.01490952 7.65078369 -0.01826813 8.70127869 -0.02172852 C12.08488673 -0.03125797 15.4684454 -0.03318259 18.85206604 -0.03425598 C21.19614686 -0.03746704 23.54022747 -0.04083099 25.88430786 -0.04434204 C30.80300868 -0.05033821 35.7216919 -0.05218143 40.64039612 -0.05158997 C46.9535779 -0.05148828 53.26664737 -0.06514454 59.57980251 -0.08236217 C64.42240928 -0.09346184 69.2649887 -0.09550981 74.10760689 -0.09498024 C76.43568878 -0.09616328 78.76377132 -0.10060305 81.09184074 -0.10831261 C84.34329551 -0.11807201 87.59450408 -0.11525052 90.84596252 -0.10920715 C91.81386215 -0.11482666 92.78176178 -0.12044617 93.7789917 -0.12623596 C94.66371155 -0.12204147 95.5484314 -0.11784698 96.45996094 -0.11352539 C97.22890403 -0.11407016 97.99784712 -0.11461493 98.79009151 -0.1151762 C100.79347229 0.13371277 100.79347229 0.13371277 103.79347229 2.13371277 C103.46347229 3.12371277 103.13347229 4.11371277 102.79347229 5.13371277 C102.29847229 4.14371277 102.29847229 4.14371277 101.79347229 3.13371277 C67.14347229 2.80371277 32.49347229 2.47371277 -3.20652771 2.13371277 C-4.13068989 5.83036149 -4.40243901 8.86235357 -4.52293396 12.64933777 C-4.56482849 13.89972839 -4.60672302 15.15011902 -4.64988708 16.43840027 C-4.70886169 18.39132996 -4.70886169 18.39132996 -4.76902771 20.38371277 C-4.8122113 21.70113464 -4.8553949 23.01855652 -4.89988708 24.37590027 C-5.00594688 27.62840065 -5.10800795 30.88097669 -5.20652771 34.13371277 C-5.86652771 33.80371277 -6.52652771 33.47371277 -7.20652771 33.13371277 C-6.87652771 22.57371277 -6.54652771 12.01371277 -6.20652771 1.13371277 C-3.89383616 -0.02263301 -2.57363209 0.00561176 0 0 Z " fill="#2B2B2B" transform="translate(107.20652770996094,-0.1337127685546875)"/>
<path d="M0 0 C0.99 0 1.98 0 3 0 C2.814375 0.61875 2.62875 1.2375 2.4375 1.875 C2.04683846 4.6654396 2.11324126 6.47591764 2.46875 9.21875 C3.23551689 16.34196906 3.10757973 23.47178244 3.0625 30.625 C3.05747197 32.02473797 3.05291138 33.4244777 3.04882812 34.82421875 C3.03713167 38.21619169 3.02074086 41.60807233 3 45 C1.02 45 -0.96 45 -3 45 C-3.19658808 43.58456585 -3.38187546 42.16755969 -3.5625 40.75 C-3.66691406 39.96109375 -3.77132812 39.1721875 -3.87890625 38.359375 C-4 36 -4 36 -3.52294922 34.25097656 C-2.84909579 31.35044966 -2.81713289 28.60197419 -2.75390625 25.625 C-2.70459961 23.77648438 -2.70459961 23.77648438 -2.65429688 21.890625 C-2.59310106 19.29696418 -2.53580901 16.7032083 -2.48242188 14.109375 C-2.44826172 12.87703125 -2.41410156 11.6446875 -2.37890625 10.375 C-2.3538501 9.24835937 -2.32879395 8.12171875 -2.30297852 6.9609375 C-2.0117736 4.11506063 -1.47396278 2.41790344 0 0 Z " fill="#6D6D6F" transform="translate(104,2)"/>
<path d="M0 0 C0.36795695 3.2828659 0.3231932 4.58663012 -1.75 7.23828125 C-2.4925 7.92277344 -3.235 8.60726562 -4 9.3125 C-4.7425 10.00988281 -5.485 10.70726562 -6.25 11.42578125 C-6.8275 11.94527344 -7.405 12.46476562 -8 13 C-6.94890528 15.22557881 -6.16292713 16.8433393 -4.375 18.5625 C-3 20 -3 20 -3 23 C-8.02072539 23.70466321 -8.02072539 23.70466321 -11 23 C-13.76760928 20.64106573 -15.89141364 17.95202091 -18 15 C-16.58038406 10.51530419 -14.3519227 8.00448309 -11 4.75 C-10.113125 3.87859375 -9.22625 3.0071875 -8.3125 2.109375 C-5.08638824 -0.83336208 -4.08758077 -1.22627423 0 0 Z " fill="#6F7072" transform="translate(142,25)"/>
<path d="M0 0 C1.28117706 0.02009628 2.56235413 0.04019257 3.88235474 0.06089783 C5.28599253 0.0880963 6.68962814 0.11540711 8.09326172 0.14282227 C9.52529152 0.16712079 10.95732911 0.19096448 12.38937378 0.21437073 C16.16075499 0.27723836 19.9319986 0.34629734 23.70324707 0.41662598 C27.55063606 0.48728528 31.3981227 0.55211661 35.24560547 0.61743164 C42.79649472 0.74647849 50.34724812 0.8820632 57.89794922 1.02172852 C57.89794922 2.34172852 57.89794922 3.66172852 57.89794922 5.02172852 C57.16189453 5.36204102 56.42583984 5.70235352 55.66748047 6.05297852 C49.01753404 9.35599022 45.02853276 12.20708809 41.89794922 19.02172852 C41.15185547 17.30688477 41.15185547 17.30688477 40.89794922 15.02172852 C42.55029297 12.76782227 42.55029297 12.76782227 44.83544922 10.45922852 C48.23249996 7.33555207 48.23249996 7.33555207 48.89794922 3.02172852 C24.64294922 2.52672852 24.64294922 2.52672852 -0.10205078 2.02172852 C0.88794922 3.01172852 1.87794922 4.00172852 2.89794922 5.02172852 C2.23794922 5.02172852 1.57794922 5.02172852 0.89794922 5.02172852 C1.22794922 5.68172852 1.55794922 6.34172852 1.89794922 7.02172852 C4.78009809 6.13957965 4.78009809 6.13957965 6.89794922 5.02172852 C7.55794922 6.34172852 8.21794922 7.66172852 8.89794922 9.02172852 C7.90794922 9.35172852 6.91794922 9.68172852 5.89794922 10.02172852 C5.56794922 10.68172852 5.23794922 11.34172852 4.89794922 12.02172852 C3.35107422 10.87704102 3.35107422 10.87704102 1.77294922 9.70922852 C-1.37622339 7.4515732 -4.5791799 5.65427844 -8.10205078 4.02172852 C-8.10205078 3.03172852 -8.10205078 2.04172852 -8.10205078 1.02172852 C-5.32072009 -0.36893683 -3.11084887 -0.05489733 0 0 Z " fill="#141F46" transform="translate(55.10205078125,140.978271484375)"/>
<path d="M0 0 C0.66 0.33 1.32 0.66 2 1 C1.67 1.66 1.34 2.32 1 3 C6.82464831 4.01280895 12.44811758 4.11503457 18.3515625 4.0625 C19.32862152 4.05871338 20.30568054 4.05492676 21.31234741 4.05102539 C24.41661107 4.03886896 27.52077916 4.02023863 30.625 4 C34.72135173 3.97338385 38.81765676 3.95340689 42.9140625 3.9375 C43.85061676 3.92920166 44.78717102 3.92090332 45.75210571 3.91235352 C49.96637974 3.89649784 53.89321511 3.9102916 58 5 C56 7 56 7 53.97328186 7.24723816 C53.1404216 7.24581314 52.30756134 7.24438812 51.44946289 7.24291992 C50.03142113 7.24753487 50.03142113 7.24753487 48.58473206 7.25224304 C47.04425453 7.24146477 47.04425453 7.24146477 45.47265625 7.23046875 C43.8846244 7.22978142 43.8846244 7.22978142 42.26451111 7.2290802 C40.01576625 7.22605301 37.76702357 7.2181529 35.51831055 7.20581055 C32.10783277 7.18774019 28.69762967 7.18529965 25.28710938 7.18554688 C23.09895603 7.18062413 20.9108045 7.17479255 18.72265625 7.16796875 C17.20950584 7.16629951 17.20950584 7.16629951 15.66578674 7.16459656 C9.06361434 7.12133933 2.56468785 6.70068814 -4 6 C-4.33 5.01 -4.66 4.02 -5 3 C-2.625 1.4375 -2.625 1.4375 0 0 Z " fill="#0D112D" transform="translate(143,334)"/>
<path d="M0 0 C0.99 0.66 1.98 1.32 3 2 C3 2.66 3 3.32 3 4 C5.99332739 3.0022242 6.94766315 2.2477975 9 0 C9 0.66 9 1.32 9 2 C10.98 2 12.96 2 15 2 C14.29379845 3.65581725 13.55912762 5.29951386 12.8125 6.9375 C12.40644531 7.85402344 12.00039062 8.77054688 11.58203125 9.71484375 C10 12 10 12 7.32421875 12.81640625 C6.55722656 12.87699219 5.79023438 12.93757813 5 13 C4.34 11.02 3.68 9.04 3 7 C2.46375 7.268125 1.9275 7.53625 1.375 7.8125 C-1.55251044 8.04361925 -2.04432302 7.44912623 -4.25 5.625 C-5.1575 4.75875 -6.065 3.8925 -7 3 C-7 2.67 -7 2.34 -7 2 C-4.69 2 -2.38 2 0 2 C0 1.34 0 0.68 0 0 Z M3 5 C3.33 5.66 3.66 6.32 4 7 C4.33 6.34 4.66 5.68 5 5 C4.34 5 3.68 5 3 5 Z " fill="#3D3D40" transform="translate(139,46)"/>
<path d="M0 0 C2.31 0 4.62 0 7 0 C7 6.6 7 13.2 7 20 C6.01 20.33 5.02 20.66 4 21 C2 20 2 20 0.8828125 17.92578125 C-0.20969608 14.3050338 -0.21803189 10.92666616 -0.125 7.1875 C-0.11597656 6.49462891 -0.10695312 5.80175781 -0.09765625 5.08789062 C-0.07426157 3.39177605 -0.03839641 1.69584129 0 0 Z " fill="#4B4C50" transform="translate(204,47)"/>
<path d="M0 0 C0.99 0.33 1.98 0.66 3 1 C2.99555878 1.87394913 2.99111755 2.74789825 2.98654175 3.64833069 C2.9463957 11.90189507 2.91598039 20.15542646 2.89637566 28.4090662 C2.88595771 32.65190372 2.87183498 36.89466025 2.84912109 41.13745117 C2.82732159 45.23528777 2.81541642 49.33304668 2.81024551 53.43093681 C2.80656249 54.99096333 2.79937053 56.55098581 2.78853989 58.11097908 C2.77393027 60.30332612 2.77202597 62.49535592 2.77294922 64.68774414 C2.768508 65.93350723 2.76406677 67.17927032 2.75949097 68.46278381 C3.08579306 73.26177626 4.48789242 77.46367726 6 82 C5.34 82 4.68 82 4 82 C4 81.34 4 80.68 4 80 C3.01 79.67 2.02 79.34 1 79 C0.98969254 78.06705612 0.97938507 77.13411224 0.96876526 76.17289734 C0.87108254 67.38822853 0.7683533 58.60363137 0.66066074 49.8190794 C0.60545549 45.30266958 0.55203927 40.78625325 0.50268555 36.26977539 C0.45500669 31.91255331 0.40266253 27.55541015 0.34705925 23.19828224 C0.32665167 21.5345029 0.30793594 19.87070193 0.29092598 18.20688438 C0.26684664 15.87962389 0.23679691 13.55251237 0.20532227 11.2253418 C0.1995668 10.53482224 0.19381134 9.84430267 0.18788147 9.13285828 C0.14189938 6.14913134 -0.04808549 3.85574352 -1 1 C-0.67 0.67 -0.34 0.34 0 0 Z " fill="#171F42" transform="translate(185,246)"/>
<path d="M0 0 C2.475 0.99 2.475 0.99 5 2 C4.6984013 5.51865145 3.99394038 7.00757452 1.75 9.8125 C-1 12 -1 12 -3.8125 12.3125 C-4.534375 12.209375 -5.25625 12.10625 -6 12 C-5.14973567 6.89841404 -3.86224906 3.51113551 0 0 Z " fill="#808183" transform="translate(178,35)"/>
<path d="M0 0 C1.68128998 0.00022659 1.68128998 0.00022659 3.39654541 0.00045776 C4.60083191 0.01078033 5.80511841 0.02110291 7.04589844 0.03173828 C8.90187653 0.03598312 8.90187653 0.03598312 10.79534912 0.04031372 C14.07678885 0.04960878 17.35803098 0.06756373 20.6394043 0.08972168 C23.99102966 0.1102203 27.34266351 0.11915354 30.69433594 0.12939453 C37.26472567 0.15145048 43.83498339 0.18492496 50.40527344 0.22705078 C50.90027344 2.20705078 50.90027344 2.20705078 51.40527344 4.22705078 C50.74527344 4.22705078 50.08527344 4.22705078 49.40527344 4.22705078 C49.40527344 3.56705078 49.40527344 2.90705078 49.40527344 2.22705078 C29.93527344 2.22705078 10.46527344 2.22705078 -9.59472656 2.22705078 C-5.64154749 0.25046124 -4.2326653 -0.01906606 0 0 Z " fill="#4B4B4B" transform="translate(154.5947265625,4.77294921875)"/>
<path d="M0 0 C-0.061875 0.94875 -0.12375 1.8975 -0.1875 2.875 C-0.125625 3.90625 -0.06375 4.9375 0 6 C0.99 6.66 1.98 7.32 3 8 C3 8.99 3 9.98 3 11 C-1.40114397 10.49701212 -3.71195019 8.91227269 -7 6 C-6.625 3.0625 -6.625 3.0625 -6 0 C-3.50907189 -1.24546405 -2.58919267 -0.7767578 0 0 Z " fill="#858688" transform="translate(133,36)"/>
<path d="M0 0 C0 0.66 0 1.32 0 2 C-5.99976946 3.74089696 -11.30311127 4.27243067 -17.53125 4.1953125 C-18.84603333 4.19106766 -18.84603333 4.19106766 -20.18737793 4.18673706 C-22.95839699 4.17563492 -25.72908035 4.15054954 -28.5 4.125 C-30.3906203 4.11495729 -32.28124571 4.10583371 -34.171875 4.09765625 C-38.78137729 4.07572835 -43.39063194 4.04126845 -48 4 C-47.67 3.34 -47.34 2.68 -47 2 C-46.05793701 2.01047363 -45.11587402 2.02094727 -44.14526367 2.03173828 C-40.59852577 2.0661367 -37.05196909 2.09105113 -33.50512695 2.10986328 C-31.97970759 2.11982599 -30.45430684 2.13340109 -28.92895508 2.15087891 C-20.84041405 2.24113503 -13.04130431 2.19724545 -5.0949707 0.43310547 C-3 0 -3 0 0 0 Z " fill="#151E3F" transform="translate(234,228)"/>
<path d="M0 0 C1.32 0.33 2.64 0.66 4 1 C3.42365861 5.75481646 1.44931479 8.97048212 -1 13 C-2.32 13 -3.64 13 -5 13 C-3.78184562 8.31479085 -2.30440013 4.29456388 0 0 Z " fill="#868689" transform="translate(154,34)"/>
<path d="M0 0 C0.33 0.99 0.66 1.98 1 3 C2.98 3 4.96 3 7 3 C4.34345343 6.73884332 2.41889613 8.64978174 -2 10 C-2.99 8.68 -3.98 7.36 -5 6 C-3.35 4.02 -1.7 2.04 0 0 Z " fill="#4E4E50" transform="translate(171,44)"/>
<path d="M0 0 C0.99 0.33 1.98 0.66 3 1 C4.09506492 4.28519475 4.09960608 6.73663415 4.0625 10.1875 C4.05347656 11.27417969 4.04445312 12.36085938 4.03515625 13.48046875 C4.02355469 14.31191406 4.01195312 15.14335938 4 16 C2.68 16 1.36 16 0 16 C0 10.72 0 5.44 0 0 Z " fill="#86858A" transform="translate(206,31)"/>
<path d="M0 0 C2.912575 0.08566397 4.56798024 0.57910955 6.66796875 2.625 C8.16091772 4.38391375 9.60436262 6.16313019 11 8 C8.53199953 6.84826645 6.95216435 5.95216435 5 4 C4.01 4 3.02 4 2 4 C3.52708963 7.43595166 5.59927045 10.11912454 8 13 C4.78956118 11.61811547 2.95063635 10.07578097 0.75 7.375 C0.22921875 6.74335938 -0.2915625 6.11171875 -0.828125 5.4609375 C-1.21484375 4.97882812 -1.6015625 4.49671875 -2 4 C-1.34 2.68 -0.68 1.36 0 0 Z " fill="#606061" transform="translate(168,24)"/>
<path d="M0 0 C0.125 2.875 0.125 2.875 0 6 C-0.66 6.66 -1.32 7.32 -2 8 C-4.625 7.625 -4.625 7.625 -7 7 C-7.33 5.68 -7.66 4.36 -8 3 C-3.375 0 -3.375 0 0 0 Z " fill="#47474A" transform="translate(150,51)"/>
<path d="M0 0 C2.48906616 3.235786 4.75267043 6.5927584 7 10 C7.99 11.485 7.99 11.485 9 13 C7.02 12.34 5.04 11.68 3 11 C3 9.68 3 8.36 3 7 C1.68 7.33 0.36 7.66 -1 8 C-1.66 7.01 -2.32 6.02 -3 5 C-2.34 4.67 -1.68 4.34 -1 4 C-0.34786708 1.97536745 -0.34786708 1.97536745 0 0 Z M2 12 C4 13 4 13 4 13 Z " fill="#111B46" transform="translate(283,313)"/>
<path d="M0 0 C1.20462891 -0.02126953 1.20462891 -0.02126953 2.43359375 -0.04296875 C4.5625 0.1875 4.5625 0.1875 6.5625 2.1875 C6.6875 5.3125 6.6875 5.3125 6.5625 8.1875 C6.2325 8.1875 5.9025 8.1875 5.5625 8.1875 C5.2325 6.5375 4.9025 4.8875 4.5625 3.1875 C1.79973823 3.71018466 -0.7635876 4.29619587 -3.4375 5.1875 C-4.0975 3.8675 -4.7575 2.5475 -5.4375 1.1875 C-3.84855928 -0.40144072 -2.18948576 0.01751589 0 0 Z " fill="#69696D" transform="translate(215.4375,65.8125)"/>
<path d="M0 0 C5.94 3.465 5.94 3.465 12 7 C9.38058783 8.74627478 7.96175123 9.38722388 5 10 C4.54625 9.21625 4.0925 8.4325 3.625 7.625 C2.11571258 4.96301969 2.11571258 4.96301969 0 3 C0 2.01 0 1.02 0 0 Z " fill="#101B44" transform="translate(292,326)"/>
<path d="M0 0 C1.98 0.66 3.96 1.32 6 2 C5.79375 2.61875 5.5875 3.2375 5.375 3.875 C5.25125 4.57625 5.1275 5.2775 5 6 C5.66 6.66 6.32 7.32 7 8 C6.01 8.99 5.02 9.98 4 11 C3.32880451 9.5437455 2.66318193 8.08492133 2 6.625 C1.62875 5.81289063 1.2575 5.00078125 0.875 4.1640625 C0 2 0 2 0 0 Z " fill="#111B43" transform="translate(253,319)"/>
<path d="M0 0 C0.6875 2.8125 0.6875 2.8125 1 6 C-0.1875 7.9375 -0.1875 7.9375 -2 9 C-4.1875 8.6875 -4.1875 8.6875 -6 8 C-5.34 8 -4.68 8 -4 8 C-4 7.34 -4 6.68 -4 6 C-3.01 6 -2.02 6 -1 6 C-1.7425 5.319375 -1.7425 5.319375 -2.5 4.625 C-4 3 -4 3 -4 1 C-2 0 -2 0 0 0 Z " fill="#7A7A7D" transform="translate(219,73)"/>
<path d="M0 0 C4.81481481 3.12962963 4.81481481 3.12962963 5.625 6.9375 C4.80604128 10.95039772 3.13978269 12.45827115 0 15 C-0.66 15 -1.32 15 -2 15 C-1 12 -1 12 1.0625 10.5625 C2.0215625 9.7890625 2.0215625 9.7890625 3 9 C3.45218674 5.12128967 3.45218674 5.12128967 1.5 3.375 C1.005 2.92125 0.51 2.4675 0 2 C0 1.34 0 0.68 0 0 Z " fill="#727374" transform="translate(179,32)"/>
<path d="M0 0 C1.32 0 2.64 0 4 0 C3 2 2 4 1 6 C-0.65 6 -2.3 6 -4 6 C-2.84826645 3.53199953 -1.95216435 1.95216435 0 0 Z " fill="#8B8C8E" transform="translate(176,41)"/>
<path d="M0 0 C3.34708051 1.54841575 6.24667512 3.49105864 9.25 5.625 C10.14203125 6.25664062 11.0340625 6.88828125 11.953125 7.5390625 C12.96632813 8.26222656 12.96632813 8.26222656 14 9 C13.01 9.495 13.01 9.495 12 10 C10.55680308 9.09232898 9.12065894 8.17343894 7.6875 7.25 C6.88699219 6.73953125 6.08648437 6.2290625 5.26171875 5.703125 C2.99631139 3.99722239 1.57315833 2.34191855 0 0 Z " fill="#131C3F" transform="translate(7,368)"/>
<path d="M0 0 C5 2 5 2 7.375 3.0625 C10.55658303 4.19877965 13.65288801 4.60622212 17 5 C17 5.33 17 5.66 17 6 C6.22506602 6.56489945 6.22506602 6.56489945 2 3 C1.34 2.01 0.68 1.02 0 0 Z " fill="#0C143C" transform="translate(21,361)"/>
<path d="M0 0 C0 1.32 0 2.64 0 4 C-0.99 4.33 -1.98 4.66 -3 5 C-3.99 4.34 -4.98 3.68 -6 3 C-6 2.01 -6 1.02 -6 0 C-3.50907189 -1.24546405 -2.58919267 -0.7767578 0 0 Z " fill="#161A39" transform="translate(53,142)"/>
<path d="M0 0 C0.66 0.33 1.32 0.66 2 1 C1.34 2.65 0.68 4.3 0 6 C-1.32 6 -2.64 6 -4 6 C-4.33 5.01 -4.66 4.02 -5 3 C-2.625 1.4375 -2.625 1.4375 0 0 Z " fill="#182243" transform="translate(143,334)"/>
<path d="M0 0 C1.32 0.33 2.64 0.66 4 1 C6 7.625 6 7.625 6 11 C3.13546142 7.58983503 1.65296434 4.09305456 0 0 Z " fill="#0F1744" transform="translate(226,261)"/>
<path d="M0 0 C1.98 0 3.96 0 6 0 C4.02 0.99 4.02 0.99 2 2 C2.99 3.98 3.98 5.96 5 8 C3.68 7.67 2.36 7.34 1 7 C0.67 4.69 0.34 2.38 0 0 Z " fill="#111C42" transform="translate(245,240)"/>
<path d="M0 0 C2.475 0.99 2.475 0.99 5 2 C5 2.99 5 3.98 5 5 C3.35 4.67 1.7 4.34 0 4 C0 2.68 0 1.36 0 0 Z " fill="#8B8B8F" transform="translate(131,42)"/>
<path d="M0 0 C0.33 0 0.66 0 1 0 C1 1.65 1 3.3 1 5 C0.34 5 -0.32 5 -1 5 C-1 5.66 -1 6.32 -1 7 C-2.65 7.33 -4.3 7.66 -6 8 C-5.02471263 6.66382648 -4.04466681 5.3311249 -3.0625 4 C-2.24458984 2.88625 -2.24458984 2.88625 -1.41015625 1.75 C-0.94480469 1.1725 -0.47945312 0.595 0 0 Z " fill="#121F41" transform="translate(246,216)"/>
<path d="M0 0 C9.59453303 1.74259681 9.59453303 1.74259681 13 5 C12.01 5.33 11.02 5.66 10 6 C10 5.34 10 4.68 10 4 C7.98177083 3.83723958 5.96354167 3.67447917 3.9453125 3.51171875 C2 3 2 3 0 0 Z " fill="#121B3E" transform="translate(244,145)"/>
<path d="M0 0 C0.33 1.32 0.66 2.64 1 4 C2.65 3.34 4.3 2.68 6 2 C6 2.99 6 3.98 6 5 C4.35 5.66 2.7 6.32 1 7 C0.01 5.68 -0.98 4.36 -2 3 C-1.34 2.01 -0.68 1.02 0 0 Z " fill="#2E2E30" transform="translate(168,47)"/>
<path d="M0 0 C0.33 0.66 0.66 1.32 1 2 C0.22265625 3.9453125 0.22265625 3.9453125 -0.9375 6.125 C-1.31777344 6.84945313 -1.69804688 7.57390625 -2.08984375 8.3203125 C-2.39019531 8.87460937 -2.69054687 9.42890625 -3 10 C-3.66 9.67 -4.32 9.34 -5 9 C-3.90931332 5.22454612 -3.0916909 2.52956528 0 0 Z " fill="#141A42" transform="translate(91,354)"/>
<path d="M0 0 C0.66 0.66 1.32 1.32 2 2 C1.01 4.97 0.02 7.94 -1 11 C-1.99 11 -2.98 11 -4 11 C-2.68 7.37 -1.36 3.74 0 0 Z " fill="#142043" transform="translate(64,346)"/>
<path d="M0 0 C0.33 0 0.66 0 1 0 C1 3.3 1 6.6 1 10 C-0.65 10 -2.3 10 -4 10 C-4 9.34 -4 8.68 -4 8 C-3.01 7.67 -2.02 7.34 -1 7 C-0.67 4.69 -0.34 2.38 0 0 Z " fill="#7E7E81" transform="translate(106,37)"/>
<path d="M0 0 C0.33 0 0.66 0 1 0 C0.67 3.3 0.34 6.6 0 10 C-2 7 -2 7 -1.6875 3.875 C-1 1 -1 1 0 0 Z " fill="#151D46" transform="translate(280,201)"/>
<path d="M0 0 C2.1875 0.3125 2.1875 0.3125 4 1 C3.01 1.495 3.01 1.495 2 2 C2 2.99 2 3.98 2 5 C-0.475 4.01 -0.475 4.01 -3 3 C-1.75 1.4375 -1.75 1.4375 0 0 Z " fill="#141C3E" transform="translate(141,141)"/>
<path d="" fill="#000000" transform="translate(0,0)"/>
</svg>
